<svg width="98" height="40" viewBox="0 0 98 40" fill="none" xmlns="http://www.w3.org/2000/svg">
<g clip-path="url(#clip0_67_536)">
<mask id="mask0_67_536" style="mask-type:luminance" maskUnits="userSpaceOnUse" x="-1" y="-1" width="102" height="49">
<path d="M100.35 -0.123901H-0.309814V47.6743H100.35V-0.123901Z" fill="white"/>
</mask>
<g mask="url(#mask0_67_536)">
<path d="M8.97544 19.6947L8.4532 22.005L8.53286 22.0758C9.28118 21.2208 10.1947 20.5261 11.2184 20.0332C12.2421 19.5404 13.3549 19.2596 14.4899 19.2079C16.0566 19.2079 18.7741 19.5442 19.3671 22.7485C20.1399 21.6674 21.1564 20.7835 22.3344 20.1684C23.5123 19.5532 24.8186 19.2242 26.1474 19.2079C29.5021 19.2079 31.0246 21.3145 31.0246 23.8372C30.9557 25.0279 30.7959 26.2115 30.5466 27.3778L28.015 39.5398H22.8369L25.2888 27.3955C25.2888 27.2805 25.4039 26.8999 25.4747 26.5546C25.6249 25.9891 25.7256 25.4116 25.7756 24.8286C25.787 24.5784 25.7433 24.3287 25.6474 24.0972C25.5516 23.8658 25.406 23.6583 25.2211 23.4894C25.0361 23.3204 24.8162 23.1943 24.5771 23.1198C24.3379 23.0453 24.0853 23.0243 23.8371 23.0583C23.1143 23.1257 22.4173 23.3618 21.8024 23.7477C21.1874 24.1336 20.6716 24.6584 20.2965 25.28C19.3647 26.922 18.7464 28.7229 18.4731 30.5909L16.6497 39.5398H11.4008L13.9323 27.2008C14.1234 26.4233 14.2361 25.6286 14.2686 24.8286C14.2698 24.5813 14.219 24.3364 14.1197 24.1099C14.0205 23.8834 13.8748 23.6802 13.6922 23.5134C13.5095 23.3466 13.294 23.2199 13.0594 23.1415C12.8248 23.0632 12.5764 23.0348 12.3302 23.0583C10.728 23.0583 9.42686 24.4037 8.78956 25.28C7.9044 26.6255 7.5592 28.1568 7.07236 30.4582L5.21354 39.5752H0L4.06285 19.6947H8.97544Z" fill="#15213E"/>
<path d="M38.8847 31.2636C38.7342 34.397 40.4868 36.1673 42.6466 36.1673C43.5151 36.1406 44.358 35.8676 45.0773 35.3802C45.7966 34.8929 46.3627 34.2112 46.7095 33.4145L51.4008 34.2111C49.1259 39.0087 45.2932 40 42.6112 40C37.2472 40 33.8571 36.1319 33.8571 30.7679C33.8571 25.7845 36.9462 19.199 44.6205 19.199C50.728 19.199 52.3302 24.0231 52.3302 27.7761C52.3344 28.9469 52.2217 30.1152 51.9938 31.2636H38.8847ZM47.6035 28.0062C47.7097 25.3508 46.7803 23.0228 44.0629 23.0228C41.0445 23.0228 39.7787 26.1297 39.407 28.0062H47.6035Z" fill="#15213E"/>
<path d="M55.9416 19.6946H58.4731L59.1104 16.517L65.0675 12.7993L63.6867 19.6946H66.8909L66.0766 23.5982H62.8723L61.1906 31.9894C61.1906 32.0691 61.1197 32.3789 61.0489 32.6798C60.8788 33.2915 60.7837 33.9217 60.7657 34.5563C60.7657 35.8664 61.9164 35.8664 62.536 35.8664C62.8635 35.8664 64.0584 35.7513 64.2443 35.7513L63.4211 39.7079C62.5128 39.8956 61.5869 39.9846 60.6595 39.9735C58.0571 39.9735 55.3485 39.2122 55.3485 35.8752C55.4199 34.4367 55.6424 33.0096 56.0124 31.6176L57.6588 23.5716H55.1184L55.9416 19.6946Z" fill="#15213E"/>
<path d="M70.6882 33.1401C71.3255 34.7865 72.2903 36.2824 75.1139 36.2824C76.9728 36.2824 78.7254 35.3264 78.7254 33.981C78.7254 32.91 78.3536 32.7949 74.7776 31.5291C71.5025 30.3873 68.5815 29.3517 68.5815 25.634C68.5815 22.297 71.414 19.199 77.3711 19.199C80.0974 19.199 84.4523 19.7655 85.4171 24.4037L80.5753 25.2888C79.7079 22.8901 77.0967 22.8901 76.5036 22.8901C74.3439 22.8901 73.4499 23.7752 73.4499 24.7312C73.4499 25.9173 74.4147 26.2271 77.0967 27.0326C80 27.9177 84.0274 29.1038 84.0274 33.0073C84.0274 35.6628 82.0181 39.9823 75.1759 39.9823C70.2279 39.9823 66.8378 38.212 65.6074 33.9633L70.6882 33.1401Z" fill="#15213E"/>
<path d="M92.5161 12.1089H97.7296L92.1443 39.5486H86.9308L92.5161 12.1089Z" fill="#15213E"/>
<path fill-rule="evenodd" clip-rule="evenodd" d="M65.0941 12.8082L59.8274 12.8967L59.1282 16.756L65.0941 12.8082Z" fill="#15213E"/>
<path fill-rule="evenodd" clip-rule="evenodd" d="M55.8442 19.5176L55.1715 23.6247H66.1385L66.8113 19.5176H55.8442Z" fill="#009640" stroke="#009640" stroke-width="0.11" stroke-miterlimit="2.61"/>
<path d="M58.4997 9.54199C59.0234 8.9601 59.6637 8.49481 60.3788 8.17632C61.094 7.85782 61.8682 7.69324 62.6511 7.69324C63.4339 7.69324 64.2081 7.85782 64.9233 8.17632C65.6384 8.49481 66.2787 8.9601 66.8024 9.54199L65.1914 10.9671C64.8674 10.6094 64.4726 10.323 64.0319 10.1262C63.5876 9.93374 63.1086 9.83445 62.6245 9.83445C62.1404 9.83445 61.6614 9.93374 61.2171 10.1262C60.7764 10.323 60.3816 10.6094 60.0576 10.9671L58.4731 9.54199H58.4997Z" fill="#009640"/>
<path d="M55.5875 7.1167C56.5007 6.09967 57.6177 5.28629 58.8659 4.72947C60.1142 4.17266 61.4657 3.88489 62.8325 3.88489C64.1993 3.88489 65.5508 4.17266 66.799 4.72947C68.0473 5.28629 69.1643 6.09967 70.0775 7.1167L68.493 8.54179C67.776 7.75676 66.9019 7.13123 65.9275 6.70578C64.9531 6.28034 63.9001 6.06448 62.8369 6.07222C61.7812 6.07067 60.7367 6.28952 59.7704 6.71477C58.804 7.14002 57.9371 7.7623 57.2251 8.54179L55.6318 7.1167H55.5875Z" fill="#009640"/>
<path d="M52.8966 4.38154C54.1413 3.00665 55.6602 1.90778 57.3555 1.15573C59.0508 0.40368 60.8849 0.0151367 62.7395 0.0151367C64.5941 0.0151367 66.4282 0.40368 68.1234 1.15573C69.8187 1.90778 71.3377 3.00665 72.5824 4.38154L70.9891 5.81549C69.4182 4.07424 67.3372 2.8739 65.0433 2.38588C62.7495 1.89786 60.3601 2.14712 58.2164 3.09807C56.7979 3.73776 55.5263 4.66278 54.481 5.81549L52.8966 4.38154Z" fill="#009640"/>
</g>
</g>
<defs>
<clipPath id="clip0_67_536">
<rect width="97.7296" height="40" fill="white"/>
</clipPath>
</defs>
</svg>
